# xmcd
#
# Track frame offsets:
#	150
#	20343
#	39403
#	60860
#	77968
#	94520
#	111855
#	127988
#	144195
#	163188
#
# Disc length: 2449 seconds
#
# Revision: 1
# Processed by: cddbd v1.5.2PL0 Copyright (c) Steve Scherf et al.
# Submitted via: audiograbber 1.83.01
#
DISCID=72098f0a
DTITLE=The Manhattans - Black Tie
DYEAR=1981
DGENRE=Soul
TTITLE0=Just One Moment Away
TTITLE1=You Stand Out
TTITLE2=Let Your Love Come Down
TTITLE3=Honey, Honey
TTITLE4=When You See Me Laughing
TTITLE5=I Wanta Thank You
TTITLE6=Deep Water
TTITLE7=Just Can't Seem To Get Next To You
TTITLE8=I Was Made For You
TTITLE9=When I Leave Tomorrow
EXTD=
EXTT0=
EXTT1=
EXTT2=
EXTT3=
EXTT4=
EXTT5=
EXTT6=
EXTT7=
EXTT8=
EXTT9=
PLAYORDER=
